PathFileType	4	(X/Y/Z)	/Users/niels/Desktop/University/Third Semester/Perception and Action/Exam/Gymnastics Motion Tracking/Code for Gym Tracking/Analyzed Data/Webcam_Backflip/id8_2_pure_Sports2D/id8_2_pure_Sports2D_px_person00.trc
DataRate	CameraRate	NumFrames	NumMarkers	Units	OrigDataRate	OrigDataStartFrame	OrigNumFrames
29.8125	29.8125	12	22	m	29.8125	60	160
Frame#	Time	Hip			RHip			RKnee			RAnkle			RBigToe			RSmallToe			RHeel			LHip			LKnee			LAnkle			LBigToe			LSmallToe			LHeel			Neck			Head			Nose			RShoulder			RElbow			RWrist			LShoulder			LElbow			LWrist		
		X1	Y1	Z1	X2	Y2	Z2	X3	Y3	Z3	X4	Y4	Z4	X5	Y5	Z5	X6	Y6	Z6	X7	Y7	Z7	X8	Y8	Z8	X9	Y9	Z9	X10	Y10	Z10	X11	Y11	Z11	X12	Y12	Z12	X13	Y13	Z13	X14	Y14	Z14	X15	Y15	Z15	X16	Y16	Z16	X17	Y17	Z17	X18	Y18	Z18	X19	Y19	Z19	X20	Y20	Z20	X21	Y21	Z21	X22	Y22	Z22
60	2.012578616352201	0.8862359695286968	-0.4177395191647059	0.0	0.8902474354569774	-0.4164047259993668	0.0	0.8954145789492312	-0.5207735882648349	0.0	0.8917832111821141	-0.6200548444474178	0.0	0.9146094409701973	-0.6545363146277847	0.0	0.9040193897603638	-0.657342909692022	0.0	0.8822098460143153	-0.6335565576686599	0.0	0.8857692692761265	-0.4155065229644682	0.0	0.8934758508294756	-0.5188850231114951	0.0	0.8891729722683362	-0.6147205767790392	0.0	0.915097814676962	-0.6456304288519695	0.0	0.9081976051341016	-0.640018705215292	0.0	0.8769097043257059	-0.6238228546580205	0.0	0.8998601362189014	-0.2932693538893485	0.0	0.904923605512381	-0.2327407364657162	0.0	0.9177733744898818	-0.2582908912495789	0.0	0.8985689798529097	-0.2968652466125907	0.0	0.9240400802656715	-0.22913588445675495	0.0	0.9360949675335001	-0.17769625058740982	0.0	0.893650559871509	-0.2937366104521964	0.0	0.9198819944520902	-0.23864927955776594	0.0	0.9306032218793259	-0.18327315596148464	0.0
61	2.0461215932914043	0.8870552429974075	-0.401292981164157	0.0	0.8909595488509127	-0.39932318536780637	0.0	0.8969570771601743	-0.5043864965608338	0.0	0.8949950845034544	-0.6028333849446063	0.0	0.9175066078176817	-0.6380525429080779	0.0	0.9068948791759345	-0.640568106894881	0.0	0.886058828519734	-0.615721414195175	0.0	0.8862911508046363	-0.398572315581161	0.0	0.8949886531322802	-0.5023167292983287	0.0	0.8919970928367065	-0.5973689918816353	0.0	0.9166788746577129	-0.6284254503249171	0.0	0.9099522202629198	-0.6232856219783149	0.0	0.8803395222423885	-0.6064570613627981	0.0	0.8992249937968618	-0.2764387979101087	0.0	0.9020945564976359	-0.21726053901687048	0.0	0.9161616715762849	-0.24188772728694657	0.0	0.8989652990742684	-0.2811479929458161	0.0	0.9265423991279631	-0.21803075400143784	0.0	0.9401936415744141	-0.16748754525962947	0.0	0.8940473954916114	-0.2780762847528127	0.0	0.9228116699064026	-0.22558423811550737	0.0	0.9360075748788959	-0.17173628202592162	0.0
62	2.079664570230608	0.8881775887550769	-0.388596215476132	0.0	0.8918415719543624	-0.3861644102070709	0.0	0.8985132157181153	-0.49171842161288276	0.0	0.897676151753289	-0.5893389473751697	0.0	0.920098130214956	-0.6249836347611483	0.0	0.9095702829393235	-0.6272024076802255	0.0	0.8893604045846485	-0.6015719371441646	0.0	0.8870928440727599	-0.38548670437325644	0.0	0.8964367057099495	-0.4894591038734027	0.0	0.8941076160367132	-0.5833926965496373	0.0	0.9179224028554379	-0.6140738641510675	0.0	0.911608445525608	-0.6097264733236208	0.0	0.8829026683009563	-0.5927581121048187	0.0	0.8986477899513403	-0.26350220895778176	0.0	0.8997626513667886	-0.20508631426297905	0.0	0.9146520055903242	-0.2295326955901787	0.0	0.8993135505918097	-0.26934051620183364	0.0	0.9289268853481278	-0.2121721313383328	0.0	0.943177642857282	-0.1634572043724163	0.0	0.894559523684361	-0.2664104585870297	0.0	0.925299000415396	-0.2173451819440866	0.0	0.9397687360091393	-0.1667931303945517	0.0
63	2.113207547169811	0.8896159038279086	-0.37908917587912494	0.0	0.8928015264335214	-0.37647361535837454	0.0	0.9000912478969633	-0.48240196776723376	0.0	0.8999361869868938	-0.5793716506739163	0.0	0.9222934403697427	-0.6153416423335667	0.0	0.911929799860793	-0.6172728260292073	0.0	0.8921495326689062	-0.5909437038924353	0.0	0.8882555726371634	-0.3757507044082917	0.0	0.8978507340120411	-0.4799148774606215	0.0	0.8956743452937311	-0.5726683632560603	0.0	0.918931992665244	-0.6027201064026457	0.0	0.9133012524644571	-0.599258206467819	0.0	0.8847063518585282	-0.5826380378935323	0.0	0.8985327287004535	-0.25405345442430943	0.0	0.8991177100247877	-0.19583295281553284	0.0	0.9142528978995121	-0.22077768134542833	0.0	0.8997202548938132	-0.2609333764733808	0.0	0.9312937476919452	-0.21126606376200688	0.0	0.9452293377077339	-0.16560475514609724	0.0	0.8952924504038556	-0.25816584619307603	0.0	0.9269752857554766	-0.21426296402388867	0.0	0.9412873069506422	-0.16871378013082042	0.0
64	2.1467505241090143	0.8912679863441118	-0.37255339255694436	0.0	0.8937386329274984	-0.3700832329915027	0.0	0.9017292187972168	-0.47622270469129063	0.0	0.9018249313665219	-0.5728020289178686	0.0	0.923993734422085	-0.6090942881232347	0.0	0.9138367334501303	-0.6107565940218416	0.0	0.8944721937811022	-0.5838371903268262	0.0	0.8897435588296269	-0.36914611055005464	0.0	0.8993367712438598	-0.47347369861310606	0.0	0.8969733148715738	-0.5653014660403287	0.0	0.920008120273577	-0.5947501946380422	0.0	0.9152218236126669	-0.5919651669552285	0.0	0.8860955797977106	-0.5760889295144622	0.0	0.8992214188436611	-0.24777798098556608	0.0	0.9010168819882256	-0.18932657128579922	0.0	0.9157694368975365	-0.21538906524256415	0.0	0.9002325916515452	-0.2556568861682224	0.0	0.9334401231579859	-0.21532586850116353	0.0	0.9464686516097462	-0.17422217919715985	0.0	0.8962576865300891	-0.2530007605262186	0.0	0.9271055894051137	-0.21686715486958644	0.0	0.9399787141712572	-0.17800292846117488	0.0
65	2.180293501048218	0.8929584973401249	-0.3689885188163422	0.0	0.8945937652445709	-0.3669584029794628	0.0	0.903421345271305	-0.4730905147099507	0.0	0.9033687639291493	-0.5696433644268	0.0	0.925247564707462	-0.6062644915228087	0.0	0.9152867670342837	-0.6076612810453467	0.0	0.8963943434261752	-0.5804154283740355	0.0	0.8913857263572946	-0.3656352656427807	0.0	0.9009643019375597	-0.4701209208559003	0.0	0.8982512369141927	-0.5615320231960509	0.0	0.9215678650354003	-0.590592230552136	0.0	0.9175343961260486	-0.5880164017058832	0.0	0.8874414543856711	-0.5731773207983618	0.0	0.9009144136557174	-0.24451859961167433	0.0	0.9056537382660771	-0.18547858706382447	0.0	0.9194736683015978	-0.21327563444990974	0.0	0.9009726232292026	-0.2534135886787994	0.0	0.9348491187323595	-0.22468731570134726	0.0	0.9468489387022925	-0.18979698894863528	0.0	0.8973809825829779	-0.25082640613288687	0.0	0.9248108269287594	-0.22581812987214808	0.0	0.9353403640578555	-0.19543420539406892	0.0
66	2.213836477987421	0.8945482522241625	-0.36850575046313594	0.0	0.8954097229832447	-0.36706529958331324	0.0	0.9051020097509479	-0.47302339077349814	0.0	0.9046253709901831	-0.5700190513881238	0.0	0.9262868664182645	-0.6069596623838981	0.0	0.9164655329306621	-0.6080713048118718	0.0	0.898013428458299	-0.580841099993144	0.0	0.8929471435058778	-0.36525848198034017	0.0	0.9026950699895643	-0.4699396264003478	0.0	0.8996000528448168	-0.5615433319067042	0.0	0.9237928102402276	-0.5904495073054788	0.0	0.9201809427268208	-0.5875419107667686	0.0	0.8889053391140339	-0.573975668228947	0.0	0.9035519761982391	-0.24428670732969218	0.0	0.912292509168752	-0.18427532297312416	0.0	0.9248533575898961	-0.2143501002984923	0.0	0.9021089540169855	-0.2542111039690939	0.0	0.9348844594553656	-0.23957334938456468	0.0	0.9462624295074229	-0.2126686299857692	0.0	0.8985784608444117	-0.25172589293846875	0.0	0.9195495947387711	-0.24137226904977752	0.0	0.927164566906651	-0.22153233011525608	0.0
67	2.2473794549266244	0.8959978989524306	-0.3713251660529416	0.0	0.8963347039748479	-0.3704382644393671	0.0	0.9067015662274394	-0.47616217189325044	0.0	0.9056740692667009	-0.5740405559138494	0.0	0.9274192156871793	-0.6112952277603834	0.0	0.9176600819816924	-0.6121073756971221	0.0	0.8994036207231413	-0.585153605733149	0.0	0.8942715222197765	-0.3681680865414949	0.0	0.9044469358016399	-0.47303926265152785	0.0	0.9010059777011169	-0.5653794742628191	0.0	0.9264554707874906	-0.594334363813473	0.0	0.9229119463243147	-0.5906973762720886	0.0	0.8904513897017469	-0.5785236425983562	0.0	0.9067182325568541	-0.24722800218012322	0.0	0.9194418110596437	-0.18596206175199592	0.0	0.9306829285599968	-0.2185552963839746	0.0	0.9036636503352032	-0.25817339367990194	0.0	0.9331100046242881	-0.25944883943927566	0.0	0.944678217012718	-0.24257711982857996	0.0	0.8997769047358298	-0.2558487056579228	0.0	0.911757085353404	-0.2624328734928662	0.0	0.9159919388268373	-0.25545546876640285	0.0
68	2.280922431865828	0.8973237437209155	-0.3777816094367311	0.0	0.89755067313888	-0.37731142945079005	0.0	0.9082141725803662	-0.48277424077669256	0.0	0.906595460321481	-0.5817824027867925	0.0	0.9289333117356117	-0.6193090789330395	0.0	0.9191461103234944	-0.6198639541210491	0.0	0.9005963716246442	-0.5933485925316051	0.0	0.8953017820740322	-0.37470966594462574	0.0	0.9061895065102233	-0.4796170294981226	0.0	0.9024462990290231	-0.5730514426765596	0.0	0.929171613054607	-0.6022885301700268	0.0	0.9255338405753233	-0.5977665417214615	0.0	0.8920173729947352	-0.5868948672330335	0.0	0.9097665505375456	-0.2535975617336971	0.0	0.9255027696368636	-0.19113849532057478	0.0	0.9355566971715633	-0.22603005360942646	0.0	0.9054298539130942	-0.26557493361104373	0.0	0.929614287197713	-0.28285656969606027	0.0	0.9421631651444549	-0.27822670420567286	0.0	0.9008765724027135	-0.2634054673580962	0.0	0.9032759674099725	-0.28649932183514637	0.0	0.9036437381529249	-0.29419765445038715	0.0
69	2.314465408805031	0.8985605158545646	-0.38829505294487004	0.0	0.8991954747154348	-0.3881227160131972	0.0	0.9097266120373424	-0.493186216605973	0.0	0.9074928910627978	-0.593341553734778	0.0	0.9310183978485166	-0.6309382436164728	0.0	0.921118214773314	-0.6313644249056046	0.0	0.9016532536132075	-0.6054986551571774	0.0	0.8960315173631307	-0.3853908044916716	0.0	0.9079440320707627	-0.48999848576656907	0.0	0.9038823263253102	-0.5846389292138543	0.0	0.9317117870561713	-0.614396545175646	0.0	0.9280269494873826	-0.6090629280284507	0.0	0.8935638819714752	-0.5992162541489093	0.0	0.9121678750195122	-0.2637202560585023	0.0	0.9294936226323081	-0.2005031834064957	0.0	0.9386295789619759	-0.2371104389229172	0.0	0.9071142906638805	-0.2767932180438637	0.0	0.9250606736185518	-0.30811774899819655	0.0	0.9388965724672835	-0.3173973366767547	0.0	0.9017831310306061	-0.2747032316708853	0.0	0.8965607172126201	-0.31126799824381374	0.0	0.8929372168949153	-0.33379215200539547	0.0
70	2.3480083857442344	0.8997905418699472	-0.4032998802113358	0.0	0.901290022060924	-0.4033546890357796	0.0	0.9113783622137497	-0.507675161895985	0.0	0.9084776055621852	-0.6088122485173225	0.0	0.9336192729657179	-0.6460448806132147	0.0	0.9235802124353908	-0.6465278496320507	0.0	0.9026813331741559	-0.6217133297438482	0.0	0.8965603101691745	-0.4007137453388689	0.0	0.9097125607777039	-0.5045408230277774	0.0	0.9052519418241949	-0.6002291003609094	0.0	0.9340212487349031	-0.6305809662366372	0.0	0.9304077689037696	-0.6246900217501288	0.0	0.8950305985952319	-0.6155698131145971	0.0	0.9137500707491221	-0.27794697947520786	0.0	0.9312763582896604	-0.2145397535659214	0.0	0.9399106990769817	-0.2521209022751066	0.0	0.9084981841461558	-0.2922206891779739	0.0	0.9204055719652532	-0.33439949044869877	0.0	0.935230723867433	-0.3578340066560229	0.0	0.9024821877205224	-0.2901044677608482	0.0	0.8930276147020934	-0.33613407417797164	0.0	0.8863139460347187	-0.3716890978733712	0.0
71	2.381551362683438	0.9011029879663183	-0.4230971017237916	0.0	0.903676608109233	-0.4232984080786778	0.0	0.9132858092212586	-0.526430009466089	0.0	0.9095959943730618	-0.6282242331466933	0.0	0.9363488741914489	-0.6644658629865309	0.0	0.926251373440141	-0.6651724094694154	0.0	0.903754767735666	-0.64200669473958	0.0	0.8970962693175135	-0.4209474415993779	0.0	0.9114056058688206	-0.52351692187481	0.0	0.9064951847975103	-0.6198274830241067	0.0	0.9360209972413983	-0.650499162205095	0.0	0.9325198719609464	-0.6444128515063156	0.0	0.8963367041781809	-0.6359333001329611	0.0	0.9146497928219127	-0.29660411296613326	0.0	0.9313023611565712	-0.2334793947105425	0.0	0.9399902777809725	-0.27124758964196133	0.0	0.9094924046824135	-0.3121776085054441	0.0	0.9165238276729551	-0.36204872331719684	0.0	0.9316814683150764	-0.3980720071744949	0.0	0.9030611611693645	-0.30993057570721727	0.0	0.8925037465486765	-0.3618951600854016	0.0	0.8847849570131758	-0.4074771356493046	0.0
